<svg width="19" height="19" viewBox="0 0 19 19" fill="none" xmlns="http://www.w3.org/2000/svg">
<path fill-rule="evenodd" clip-rule="evenodd" d="M10.0208 12.8493L11.435 14.2635L8.6066 17.0919C6.65398 19.0446 3.48816 19.0446 1.53553 17.0919C-0.417088 15.1393 -0.417088 11.9735 1.53553 10.0209L4.36396 7.19244L5.77817 8.60665L2.94975 11.4351C1.77817 12.6066 1.77817 14.5061 2.94975 15.6777C4.12132 16.8493 6.02082 16.8493 7.19239 15.6777L10.0208 12.8493ZM8.6066 5.77822L7.19239 4.36401L10.0208 1.53558C11.9734 -0.41704 15.1393 -0.41704 17.0919 1.53558C19.0445 3.4882 19.0445 6.65403 17.0919 8.60665L14.2635 11.4351L12.8492 10.0209L15.6777 7.19244C16.8492 6.02086 16.8492 4.12137 15.6777 2.94979C14.5061 1.77822 12.6066 1.77822 11.435 2.94979L8.6066 5.77822ZM12.1421 5.07112L5.07107 12.1422L6.48528 13.5564L13.5563 6.48533L12.1421 5.07112Z" fill="#586ED3"/>
</svg>
